<?xml version="1.0" encoding="UTF-8"?>
<svg id="Delay" xmlns="http://www.w3.org/2000/svg" viewBox="0 0 541.59 547.72">
  <defs>
    <style>
      .cls-1 {
        fill: #ecbd1d;
      }
    </style>
  </defs>
  <path class="cls-1" d="M421.07,434.54l-118.35-163.71c-8.17-11.31-19.77-17.75-31.93-17.75s-23.76,6.45-31.93,17.75l-118.35,163.71c-11.47,15.87-14.41,38.73-7.5,58.33,6.91,19.59,22.37,32.23,39.43,32.23h236.7c17.06,0,32.52-12.64,39.43-32.23,6.91-19.59,3.97-42.46-7.5-58.33ZM382.99,478.8c-.18.52-.37.99-.56,1.4h-223.28c-.19-.41-.38-.88-.56-1.4-2.46-6.97-1.04-15.35,1.68-19.12l110.52-152.87,110.51,152.87c2.72,3.77,4.14,12.15,1.68,19.12Z"/>
  <path class="cls-1" d="M428.58,49.72c-6.91-19.59-22.37-32.23-39.43-32.23h-236.7c-17.06,0-32.52,12.64-39.43,32.23-6.91,19.59-3.97,42.46,7.5,58.33l118.35,163.71c8.17,11.31,19.77,17.75,31.93,17.75s23.76-6.45,31.93-17.75l118.35-163.71c11.47-15.87,14.41-38.73,7.5-58.33ZM381.31,82.9l-110.51,152.87-110.52-152.87c-2.72-3.77-4.14-12.15-1.68-19.12.18-.52.37-.99.56-1.4h223.28c.19.41.38.88.56,1.4,2.46,6.97,1.04,15.35-1.68,19.12Z"/>
  <polygon class="cls-1" points="289.81 288.56 264.87 288.56 136.96 459.39 147.54 489.08 407.14 489.08 420.65 463.55 289.81 288.56"/>
</svg>