<?xml version="1.0" encoding="UTF-8"?>
<svg id="Audio_Trigger" data-name="Audio Trigger" xmlns="http://www.w3.org/2000/svg" viewBox="0 0 541.59 547.72">
  <defs>
    <style>
      .cls-1 {
        fill: #ecbd1d;
      }
    </style>
  </defs>
  <circle class="cls-1" cx="120.12" cy="274" r="78.73"/>
  <path class="cls-1" d="M267.46,438.39c-6.85,0-13.75-2.15-19.64-6.6-14.36-10.86-17.21-31.3-6.35-45.67,22.74-30.09,35.27-70.36,35.27-113.41s-12.2-82.25-34.37-112.21c-10.71-14.47-7.66-34.89,6.82-45.6,14.48-10.71,34.89-7.66,45.6,6.82,30.41,41.1,47.15,94.72,47.15,150.99s-17.21,111.39-48.46,152.73c-6.41,8.48-16.16,12.94-26.03,12.94Z"/>
  <path class="cls-1" d="M390.78,546.9c-6.47,0-13-1.92-18.7-5.92-14.74-10.34-18.3-30.68-7.96-45.42,41.61-59.29,64.52-138.46,64.52-222.92s-22.56-162.34-63.53-221.48c-10.25-14.8-6.57-35.11,8.23-45.37,14.81-10.25,35.11-6.57,45.37,8.23,48.45,69.94,75.14,161.79,75.14,258.61s-27.12,190.21-76.35,260.37c-6.35,9.04-16.45,13.88-26.72,13.88Z"/>
</svg>