<?xml version="1.0" encoding="UTF-8"?>
<svg id="Trigger_Trigger" data-name="Trigger Trigger" xmlns="http://www.w3.org/2000/svg" viewBox="0 0 541.59 547.72">
  <defs>
    <style>
      .cls-1 {
        fill: #ecbd1d;
      }
    </style>
  </defs>
  <path class="cls-1" d="M16.07,306.85C27.29,288.59,167.44,21.3,174.92,7.19c7.48-14.11,25.17-5.81,23.13,10.79-2.04,16.6-24.49,195.07-24.49,195.07h79.6c10.2,0,17.69,15.77,8.16,30.71-9.52,14.94-162.59,278.92-173.48,296.35-10.88,17.43-29.93,4.15-20.41-32.37,9.52-36.52,38.78-177.64,38.78-177.64H32.74c-12.25,0-27.83-2.98-16.67-23.24"/>
  <path class="cls-1" d="M277.15,306.85c11.22-18.26,151.37-285.56,158.85-299.67,7.48-14.11,25.17-5.81,23.13,10.79s-24.49,195.07-24.49,195.07h79.6c10.2,0,17.69,15.77,8.16,30.71-9.52,14.94-162.59,278.92-173.48,296.35-10.88,17.43-29.93,4.15-20.41-32.37,9.52-36.52,38.78-177.64,38.78-177.64h-73.47c-12.25,0-27.83-2.98-16.67-23.24"/>
</svg>