<?xml version="1.0" encoding="UTF-8"?>
<svg id="Event_Trigger" data-name="Event Trigger" xmlns="http://www.w3.org/2000/svg" viewBox="0 0 541.59 547.72">
  <defs>
    <style>
      .cls-1 {
        fill: #ecbd1d;
      }
    </style>
  </defs>
  <path class="cls-1" d="M270.79,12.08C128.37,12.08,12.91,129.28,12.91,273.86s115.46,261.78,257.88,261.78,257.88-117.2,257.88-261.78S413.22,12.08,270.79,12.08ZM379.83,251.88c-8.49,10.91-144.9,203.71-154.6,216.45-9.7,12.73-26.68,3.03-18.19-23.65,8.49-26.68,34.56-129.75,34.56-129.75h-65.48c-10.91,0-24.8-2.18-14.85-16.98,10-13.34,134.9-208.56,141.57-218.87,6.67-10.31,22.43-4.24,20.61,7.88-1.82,12.13-21.83,142.48-21.83,142.48h70.94c9.09,0,15.76,11.52,7.28,22.43Z"/>
</svg>