<?xml version="1.0" encoding="UTF-8"?>
<svg id="Seq_Trigger" data-name="Seq Trigger" xmlns="http://www.w3.org/2000/svg" viewBox="0 0 541.59 547.72">
  <defs>
    <style>
      .cls-1 {
        fill: #ecbd1d;
      }
    </style>
  </defs>
  <path class="cls-1" d="M48,156.71h441.69c26.51,0,48-21.49,48-48s-21.49-48-48-48H48C21.49,60.71,0,82.2,0,108.71s21.49,48,48,48Z"/>
  <path class="cls-1" d="M489.69,223.68H48c-26.51,0-48,21.49-48,48s21.49,48,48,48h441.69c26.51,0,48-21.49,48-48s-21.49-48-48-48Z"/>
  <path class="cls-1" d="M489.69,386.64H48c-26.51,0-48,21.49-48,48s21.49,48,48,48h441.69c26.51,0,48-21.49,48-48s-21.49-48-48-48Z"/>
</svg>