<?xml version="1.0" encoding="UTF-8"?>
<svg id="Countdown_Trigger" data-name="Countdown Trigger" xmlns="http://www.w3.org/2000/svg" viewBox="0 0 541.59 547.72">
  <defs>
    <style>
      .cls-1 {
        fill: #ecbd1d;
      }
    </style>
  </defs>
  <g>
    <path class="cls-1" d="M270.15,546.91c-.11,0-.22,0-.33,0-25.94-.18-46.85-21.27-46.83-47.18,0-.1,0-.2,0-.3l1.31-268.41c.18-26.04,21.45-47.03,47.48-46.83,25.94.18,46.85,21.27,46.83,47.18,0,.1,0,.2,0,.3l-1.31,268.41c-.18,25.93-21.26,46.83-47.15,46.83Z"/>
    <path class="cls-1" d="M418.95,547.72c-.57,0-1.14-.01-1.71-.03-25.44-.91-45.46-21.81-45.48-47.06,0-.58,0-1.16.03-1.75l1.31-82.34c.91-25.45,21.83-45.48,47.1-45.48.57,0,1.14.01,1.71.03,25.44.91,45.46,21.81,45.48,47.06,0,.58,0,1.16-.03,1.75l-1.31,82.34c-.91,25.45-21.83,45.48-47.1,45.48Z"/>
  </g>
  <path class="cls-1" d="M121.36,543.73h-.2c-25.97-.11-46.94-21.19-46.96-47.12v-.23l1.31-446.81c.11-25.98,21.2-46.96,47.15-46.96.07,0,.13,0,.2,0,25.97.11,46.94,21.19,46.96,47.12v.23l-1.31,446.81c-.11,25.98-21.2,46.96-47.15,46.96Z"/>
</svg>