<?xml version="1.0" encoding="UTF-8"?>
<svg id="Camera_Trigger" data-name="Camera Trigger" xmlns="http://www.w3.org/2000/svg" viewBox="0 0 541.59 547.72">
  <defs>
    <style>
      .cls-1 {
        fill: #ecbd1d;
      }
    </style>
  </defs>
  <path class="cls-1" d="M470.5,111.9l-51.62,42.71c-7.72,6.39-15.15,13.43-22.1,20.8v-16.76c0-49.83-40.77-90.59-90.59-90.59H91.88C42.06,68.06,1.29,108.82,1.29,158.65v214.31c0,49.83,40.77,90.59,90.59,90.59h214.31c49.83,0,90.59-40.77,90.59-90.59v-27.2c6.96,7.37,14.38,14.41,22.1,20.8l51.62,42.71c38.39,31.76,69.8,16.99,69.8-32.84v-231.69c0-49.83-31.41-64.6-69.8-32.84Z"/>
</svg>