<?xml version="1.0" encoding="UTF-8"?>
<svg id="Moving_Trigger" data-name="Moving Trigger" xmlns="http://www.w3.org/2000/svg" viewBox="0 0 541.59 547.72">
  <defs>
    <style>
      .cls-1 {
        fill: #ecbd1d;
      }
    </style>
  </defs>
  <path class="cls-1" d="M394.87,314.81h-252.85c-18.23,0-34.74,10.75-42.12,27.42-7.38,16.67-4.24,36.12,8.02,49.62l126.43,139.26c8.73,9.62,21.12,15.1,34.11,15.1s25.38-5.48,34.11-15.1l126.42-139.26c12.25-13.5,15.4-32.95,8.02-49.62-7.38-16.67-23.9-27.42-42.12-27.42Z"/>
  <path class="cls-1" d="M142.02,223.92h252.85c18.23,0,34.74-10.75,42.12-27.42,7.38-16.67,4.24-36.12-8.02-49.62L302.55,7.63c-8.73-9.62-21.12-15.1-34.11-15.1s-25.38,5.48-34.11,15.1l-126.43,139.26c-12.25,13.5-15.4,32.95-8.02,49.62,7.38,16.67,23.89,27.42,42.12,27.42Z"/>
</svg>